<?xml version="1.0" encoding="UTF-8" standalone="no"?>
<svg
   xmlns:dc="http://purl.org/dc/elements/1.1/"
   xmlns:cc="http://creativecommons.org/ns#"
   xmlns:rdf="http://www.w3.org/1999/02/22-rdf-syntax-ns#"
   xmlns:svg="http://www.w3.org/2000/svg"
   xmlns="http://www.w3.org/2000/svg"
   id="svg8"
   version="1.1"
   viewBox="0 0 141.42136 141.42101"
   height="141.42101mm"
   width="141.42136mm">
  <defs
     id="defs2" />
  <metadata
     id="metadata5">
    <rdf:RDF>
      <cc:Work
         rdf:about="">
        <dc:format>image/svg+xml</dc:format>
        <dc:type
           rdf:resource="http://purl.org/dc/dcmitype/StillImage" />
        <dc:title></dc:title>
      </cc:Work>
    </rdf:RDF>
  </metadata>
  <g
     transform="translate(0.53454423,1.2728007)"
     id="layer1">
    <rect
       y="-1.2728007"
       x="-0.53454423"
       height="141.42101"
       width="141.42136"
       id="rect815"
       style="opacity:1;fill:#823543;fill-opacity:1;stroke:none;stroke-width:0.79374999;stroke-linecap:square;stroke-linejoin:miter;stroke-miterlimit:4;stroke-dasharray:none;stroke-dashoffset:0;stroke-opacity:1;paint-order:stroke fill markers" />
    <flowRoot
       transform="scale(0.26458333)"
       style="font-style:normal;font-variant:normal;font-weight:bold;font-stretch:normal;font-size:18.6667px;line-height:1.25;font-family:'Yu Gothic UI';-inkscape-font-specification:'Yu Gothic UI Bold';letter-spacing:0px;word-spacing:0px;fill:#000000;fill-opacity:1;stroke:none"
       id="flowRoot817"
       xml:space="preserve"><flowRegion
         id="flowRegion819"><rect
           y="123.94826"
           x="104.28571"
           height="332.85715"
           width="372.85715"
           id="rect821" /></flowRegion><flowPara
         id="flowPara823" /></flowRoot>
    <circle
       r="70.189369"
       cy="69.437706"
       cx="70.175957"
       id="path946"
       style="opacity:1;fill:#ffffff;fill-opacity:0;stroke:#823543;stroke-width:1.04226017;stroke-linecap:square;stroke-linejoin:miter;stroke-miterlimit:4;stroke-dasharray:none;stroke-dashoffset:0;stroke-opacity:0;paint-order:normal" />
    <g
       id="flowRoot878"
       style="font-style:normal;font-variant:normal;font-weight:bold;font-stretch:normal;font-size:85.33333588px;line-height:1.25;font-family:CCode39;-inkscape-font-specification:'CCode39 Bold';letter-spacing:0px;word-spacing:0px;fill:#ffffff;fill-opacity:1;stroke:none"
       transform="matrix(0.20542317,0,0,0.58593745,9.7071638,-21.857988)"
       aria-label="823543">
      <path
         id="path886"
         transform="matrix(1.2879917,0,0,0.45155559,-47.254474,37.304303)"
         d="m 76.255859,73.464844 v 3.974609 H 450.23438 V 451.41797 h 3.9746 V 73.464844 Z m 0,7.951172 v 3.974609 H 442.2832 V 451.41797 h 3.97461 V 81.416016 Z m 0,7.949218 v 3.97461 H 434.33398 V 451.41797 h 3.97461 V 89.365234 Z m 0,15.900386 v 11.92579 H 410.48242 V 451.41797 H 422.4082 V 105.26562 Z m 0,15.9004 V 133.0918 H 394.58203 v 318.32617 h 11.92578 V 121.16602 Z m 0,15.96289 v 11.92578 H 378.61914 v 302.36328 h 11.92578 V 137.12891 Z m 0,15.90234 v 3.97461 H 370.66797 v 294.41211 h 3.97461 V 153.03125 Z m 0,7.94922 v 11.92578 H 354.76758 v 278.51172 h 11.92578 v -290.4375 z m 0,23.85156 v 3.97461 H 338.86719 v 262.61133 h 3.97461 V 184.83203 Z m 0,7.95117 v 3.97461 H 330.91602 v 254.66016 h 3.9746 V 192.7832 Z m 0,8.01172 v 3.97461 H 322.9043 v 246.64844 h 3.97461 V 200.79492 Z m 0,7.95117 v 3.97461 H 314.95312 v 238.69727 h 3.97461 V 208.74609 Z m 0,7.94922 v 11.92578 H 299.05273 v 222.79688 h 11.92579 V 216.69531 Z m 0,23.85157 v 3.9746 H 283.15234 v 206.89649 h 3.97461 V 240.54688 Z m 0,7.94921 v 11.92579 H 267.25195 v 190.99804 h 11.92578 V 248.49609 Z m 0,15.96289 v 3.97657 H 259.23828 v 182.98437 l 3.97656,-0.002 V 264.45898 Z m 0,7.95118 v 3.97461 H 251.28906 v 175.0332 h 3.97461 V 272.41016 Z m 0,7.95117 v 3.97461 H 243.33789 v 167.08203 h 3.97461 V 280.36133 Z m 0,15.90039 V 308.1875 H 219.48633 v 143.23047 h 11.92578 V 296.26172 Z m 0,15.90039 v 11.92578 H 203.58594 v 127.33008 h 11.92578 V 312.16211 Z m 0,15.89648 v 11.92579 H 187.68945 v 111.43359 h 11.92578 V 328.05859 Z m 0,15.90039 v 3.97461 H 179.74023 v 103.48438 h 3.97461 V 343.95898 Z m 0,7.95118 v 3.97461 h 95.533201 v 95.5332 h 3.97461 v -99.50781 z m 0,15.90039 v 11.92578 H 147.9375 v 71.68164 h 11.92578 v -83.60742 z m 0,15.90039 v 3.97461 h 63.732421 v 63.73242 h 3.97461 v -67.70703 z m 0,8.07812 v 3.97656 H 131.9082 v 55.65235 h 3.97657 v -59.62891 z m 0,7.95117 v 11.92579 h 39.751951 v 39.75195 h 11.92578 v -51.67774 z m 0,15.90039 v 3.97461 h 31.802731 v 31.80274 h 3.97461 v -35.77735 z m 0,15.9004 v 3.97656 H 92.15625 v 15.90039 h 3.976562 v -19.87695 z m 0,7.95117 v 11.92578 h 11.925782 v -11.92578 z"
         style="stroke-width:1.31125712;fill:#ffffff;fill-opacity:1" />
    </g>
  </g>
</svg>
